{"title":"Nothing to Lose 1997 480p HDRip XviD titler","uid":9768994,"size":1296123070,"categoryP":"video","categoryS":"movies","magnet":"?xt=urn:btih:ee2248c814f4a8d1a0152da50671482aca61dddf&amp;dn=Nothing+to+Lose+1997+480p+HDRip+XviD+titler&amp;tr=udp%3A%2F%2Ftracker.openbittorrent.com%3A80&amp;tr=udp%3A%2F%2Fopen.demonii.com%3A1337&amp;tr=udp%3A%2F%2Ftracker.coppersurfer.tk%3A6969&amp;tr=udp%3A%2F%2Fexodus.desync.com%3A6969","seeders":1,"leechers":0,"uploader":"movieZ.freak","files":4,"time":1394925931,"description":"SOURCE: Nothing to Lose 1997 HDTVRip 720p AC3\n\n\n &lt;a href=&quot;\nhttp://www.imdb.com/title/tt0119807/&quot; rel=&quot;nofollow&quot; target=&quot;_NEW&quot;&gt;\nhttp://www.imdb.com/title/tt0119807/&lt;/a&gt;\n\n\n &lt;a href=&quot;\nhttp://www.rottentomatoes.com/m/1077642-nothing_to_lose/&quot; rel=&quot;nofollow&quot; target=&quot;_NEW&quot;&gt;\nhttp://www.rottentomatoes.com/m/1077642-nothing_to_lose/&lt;/a&gt;\n\n\n &lt;a href=&quot;\nhttp://en.wikipedia.org/wiki/Nothing_to_Lose_%281997_film%29&quot; rel=&quot;nofollow&quot; target=&quot;_NEW&quot;&gt;\nhttp://en.wikipedia.org/wiki/Nothing_to_Lose_%281997_film%29&lt;/a&gt;\n\n\n\n\n- SAMPLE: Yes\n\n\n- SUBTITLE: English\n\n\n- LANGUAGE / AUDIO: English\n\n\n\n \nSCREENSHOTS:\n-------------------    &lt;a href=&quot;\nhttp://someimage.com/BGu1&quot; rel=&quot;nofollow&quot; target=&quot;_NEW&quot;&gt;\nhttp://someimage.com/BGu1&lt;/a&gt;\n\n\n\nDIRECTOR: Steve Oedekerk\n\n\n\nCAST: Martin Lawrence, Tim Robbins, Kelly Preston, Rebecca Gayheart, John C. McGinley, Giancarlo Esposito, Michael McKean, Samaria Graham,...\n\n\nPLOT:\n-----------\nTwo men with nothing in common become unlikely companions in this comedy. Advertising executive Nick Beame (Tim Robbins) is not having a good day when he comes home from work to discover that his wife Ann (Kelly Preston) is having an affair with another man -- who, adding insult to injury, happens to be his boss, Phillip Barrow (Michael McKean). Deeply depressed, Nick hops into his SUV and starts driving aimlessly. He ends up in a rough neighborhood where a carjacker, T. Paul (Martin Lawrence), pulls a gun and jumps in the passenger seat. Nick grumbles &quot;Boy, did you pick the wrong guy on the wrong day,&quot; and, thinking he has no reason to live, heads out to the desert over T. Paul's objections. Nick learns that T. Paul is actually a family man who has turned to crime because he can't get a job. Nick offers to help T. Paul, though crime is not one of his strong suits, and things get even more complicated when a pair of crooks, Rig (John C. McGinley) and Charlie (Giancarlo Esposito), start following them.\n\n\n************************************\n\n- Duration: 1h 33mn\n\n- Bit rate: 1663 Kbps\n\n- Res: 854 x 462\n\n- AR: 1.85:1\n\n- FPS: 25.000 fps\n\n- Audio: AC3, 2 channels, 128Kbps\n\n************************************\n\n\nGeneral\n------------\nFormat : AVI\nFormat/Info : Audio Video Interleave\nFile size : 1.18 GiB\nDuration : 1h 33mn\nOverall bit rate : 1801 Kbps\nWriting library : VirtualDub build 35491\n\n\nVideo\n------------\nFormat : MPEG-4 Visual\nFormat profile : Advanced Simple@L5\nFormat settings, BVOP : 2\nFormat settings, QPel : No\nFormat settings, GMC : No warppoints\nFormat settings, Matrix : Default (H.263)\nCodec ID : XVID\nCodec ID/Hint : XviD\nDuration : 1h 33mn\nBit rate : 1663 Kbps\nWidth : 854 pixels\nHeight : 462 pixels\nDisplay aspect ratio : 1.85:1\nFrame rate : 25.000 fps\nColor space : YUV\nChroma subsampling : 4:2:0\nBit depth : 8 bits\nScan type : Progressive\nCompression mode : Lossy\nBits/(Pixel*Frame) : 0.169\nStream size : 1.09 GiB (92%)\nWriting library : XviD 65\n\n\nAudio\n----------\nFormat : AC-3\nFormat/Info : Audio Coding 3\nMode extension : CM (complete main)\nFormat settings, Endianness : Big\nCodec ID : 2000\nDuration : 1h 33mn\nBit rate mode : Constant\nBit rate : 128 Kbps\nChannel(s) : 2 channels\nChannel positions : Front: L R\nSampling rate : 48.0 KHz\nBit depth : 16 bits\nCompression mode : Lossy\nStream size : 86.1 MiB (7%)\nAlignment : Aligned on interleaves\nInterleave, duration : 40 ms (1.00 video frame)\nInterleave, preload duration : 512 ms","torrent":{"xt":"urn:btih:ee2248c814f4a8d1a0152da50671482aca61dddf","amp;dn":"Nothing+to+Lose+1997+480p+HDRip+XviD+titler","amp;tr":["udp%3A%2F%2Ftracker.openbittorrent.com%3A80","udp%3A%2F%2Fopen.demonii.com%3A1337","udp%3A%2F%2Ftracker.coppersurfer.tk%3A6969","udp%3A%2F%2Fexodus.desync.com%3A6969"],"infoHash":"ee2248c814f4a8d1a0152da50671482aca61dddf","infoHashBuffer":{"type":"Buffer","data":[238,34,72,200,20,244,168,209,160,21,45,165,6,113,72,42,202,97,221,223]},"announce":[],"urlList":[]}}